<svg xmlns="http://www.w3.org/2000/svg" xmlns:xlink="http://www.w3.org/1999/xlink" width="455" height="270" viewBox="0 0 455 270">
    <defs>
        <path id="a" d="M0 .36h440.816v253.956H0z"/>
    </defs>
    <g fill="none" fill-rule="evenodd">
        <g>
            <mask id="b" fill="#fff">
                <use xlink:href="#a"/>
            </mask>
            <path fill="#DDE8FB" d="M395.618 254.316H49.955C5.565 204.803-9.932 148.699 6.242 136.98c22.112-16.024 83.551 46.188 105.186 35.173 61.807-31.48-55.67-128.806-14.92-140.684 37.49-10.926 65.949 78.25 98.196 53.19 22.363-17.378 1.961-45.637 6.054-67.588 6.49-34.833 62.488-16.963 111.635 70.193 20.718 36.74 49.12-31.878 72.283-39.94 21.505-7.484 56.777 39.442 56.13 102.488-.327 32.363-13.855 69.526-45.188 104.504" mask="url(#b)"/>
        </g>
        <path fill="#4273FF" d="M232 178l22.423 76H257l-18.335-76zM211 178l-22.423 76H186l18.336-76z"/>
        <path fill="#92AEFF" d="M257.411 163.08c0 20.379-16.49 36.899-36.83 36.899-20.342 0-36.832-16.52-36.832-36.899s16.49-36.9 36.832-36.9c20.34 0 36.83 16.521 36.83 36.9"/>
        <path fill="#4273FF" d="M256.246 174.153l-.95-.295a36.483 36.483 0 0 0 1.618-10.778c0-5.463-1.178-10.716-3.502-15.613l.899-.428c2.387 5.031 3.598 10.428 3.598 16.041 0 3.774-.56 7.5-1.663 11.073M209.48 198.796c-13.598-4.237-23.734-16.084-25.822-30.18l.984-.146c2.033 13.72 11.898 25.249 25.134 29.374l-.296.952zM253.44 180.838l-.876-.474a36.424 36.424 0 0 0 1.694-3.597l.922.376a37.522 37.522 0 0 1-1.74 3.695M140.914 214.093c-3.459 0-6.273 2.82-6.273 6.285 0 3.465 2.814 6.283 6.273 6.283 3.458 0 6.273-2.818 6.273-6.283 0-3.466-2.815-6.285-6.273-6.285m0 13.566c-4.008 0-7.268-3.267-7.268-7.281 0-4.015 3.26-7.282 7.268-7.282 4.007 0 7.268 3.267 7.268 7.282 0 4.014-3.26 7.28-7.268 7.28"/>
        <path fill="#FF62DF" d="M117.023 253.287h47.782v-32.91h-47.782z"/>
        <path fill="#4A2ACD" d="M159.827 253.287h4.978v-32.91h-4.978zM117.023 237.331h42.804v-.997h-42.804z"/>
        <path fill="#FFF" d="M134.94 240.822h6.969v-4.488h-6.968z"/>
        <path fill="#4273FF" d="M238.728 176.864c0 2.409-.467 4.703-1.314 6.806h-33.666a18.197 18.197 0 0 1-1.314-6.806c0-10.043 8.123-18.18 18.148-18.18 10.018 0 18.146 8.137 18.146 18.18"/>
        <path fill="#4273FF" d="M225.558 176.864a4.982 4.982 0 0 1-4.978 4.987 4.982 4.982 0 0 1-4.977-4.987 4.982 4.982 0 0 1 4.977-4.986 4.982 4.982 0 0 1 4.978 4.986M267.364 151.162a6.807 6.807 0 0 0-2.806-9.199 6.783 6.783 0 0 0-9.182 2.811c-1.76 3.316-.505 7.435 2.806 9.2a6.783 6.783 0 0 0 9.182-2.812"/>
        <path fill="#4A2ACD" d="M229.375 138.623l28.807 15.35 7.475-11.28-25.32-20.61z"/>
        <path fill="#4A2ACD" d="M242.839 134.501c-2.582 4.863-8.61 6.708-13.464 4.122-4.854-2.586-6.695-8.625-4.113-13.488 2.581-4.863 8.609-6.708 13.462-4.121 4.854 2.586 6.696 8.625 4.115 13.487M212.775 138.017l-26.824 18.61-8.737-10.33 22.75-23.427z"/>
        <path fill="#4A2ACD" d="M198.924 135.496c3.13 4.528 9.33 5.656 13.85 2.521 4.52-3.136 5.647-9.349 2.517-13.876-3.13-4.528-9.332-5.657-13.851-2.521-4.52 3.135-5.646 9.348-2.516 13.876"/>
        <path fill="#4273FF" d="M216.349 183.67c0 3.76-3.042 6.807-6.794 6.807s-6.794-3.047-6.794-6.806c0-3.76 3.042-6.807 6.794-6.807s6.794 3.047 6.794 6.807M231.597 176.864c3.752 0 6.793 3.047 6.793 6.806 0 3.76-3.041 6.807-6.793 6.807-3.752 0-6.794-3.048-6.794-6.807 0-3.759 3.042-6.806 6.794-6.806"/>
        <path fill="#4A2ACD" d="M241.16 127.168l-2.433 49.697h-36.293L200 127.168c-.195-3.985 2.977-7.322 6.96-7.322H234.2c3.983 0 7.155 3.337 6.96 7.322"/>
        <path fill="#4273FF" d="M238.727 176.864l-.333 6.806-.016.334a6.8 6.8 0 0 1-6.786 6.473h-22.023a6.8 6.8 0 0 1-6.786-6.473l-.016-.334-.333-6.806h36.293zM238.43 248.3a4.204 4.204 0 0 1-4.2 4.209c-2.32 0-4.2-1.884-4.2-4.208a4.204 4.204 0 0 1 4.2-4.208c2.32 0 4.2 1.884 4.2 4.208"/>
        <path fill="#4273FF" d="M238.437 184.81a5.761 5.761 0 0 1-5.756 5.766 5.761 5.761 0 0 1-5.756-5.766 5.761 5.761 0 0 1 5.756-5.767 5.761 5.761 0 0 1 5.756 5.767"/>
        <path fill="#4273FF" d="M230.036 248.3l-3.111-63.49h11.512v63.49z"/>
        <path fill="#4A2ACD" d="M242.662 253.287h-12.633v-4.986h8.407l4.824 2.636a1.252 1.252 0 0 1-.598 2.35"/>
        <path fill="#4273FF" d="M261.989 189.873a4.21 4.21 0 0 1 2.548 5.375 4.197 4.197 0 0 1-5.366 2.553 4.21 4.21 0 0 1-2.548-5.375 4.198 4.198 0 0 1 5.366-2.553M202.286 168.573a5.77 5.77 0 0 1 3.493 7.366 5.753 5.753 0 0 1-7.353 3.499 5.77 5.77 0 0 1-3.493-7.366 5.753 5.753 0 0 1 7.353-3.5"/>
        <path fill="#4273FF" d="M259.173 197.796l-60.747-18.358 3.86-10.865 59.705 21.294z"/>
        <path fill="#4A2ACD" d="M262.441 203.468l4.237-11.923-4.69-1.672-2.818 7.933.86 5.438a1.25 1.25 0 0 0 2.411.224"/>
        <path fill="#F2B3D2" d="M227.537 120.206l-12.423-.72.78-13.486 12.422.721z"/>
        <path fill="#F2B3D2" d="M227.537 120.206a6.226 6.226 0 0 1-6.571 5.862c-3.43-.199-6.05-3.146-5.852-6.583.199-3.436 3.141-6.061 6.571-5.862 3.43.2 6.05 3.147 5.852 6.583"/>
        <path fill="#4273FF" d="M204.285 187.967l-8.388-10.314 8.303-7.942 9.89 8.892zM136.004 157.844l-.523 4.986-9.9 90.457h-2.512l7.43-95.443zM368.235 157.844l.522 4.986 9.9 90.457h2.513l-7.43-95.443z"/>
        <path fill="#4273FF" d="M125.136 162.83H378.22v-4.986H125.136z"/>
        <path fill="#4A2ACD" d="M188.748 152.344c-.72 3.686-4.288 6.089-7.968 5.367-3.68-.723-6.078-4.297-5.357-7.983.722-3.687 4.289-6.09 7.968-5.367 3.68.722 6.079 4.296 5.357 7.983M225.705 157.844h23.89v-2.992h-23.89z"/>
        <path fill="#739EFF" d="M297.035 123.688l-1.24 26.642-.348 7.514h-47.78l1.587-34.156z"/>
        <path fill="#FFF" d="M275.833 140.765c-.09 1.928-1.722 3.49-3.646 3.49-1.925 0-3.412-1.562-3.322-3.49.09-1.927 1.722-3.49 3.646-3.49s3.412 1.563 3.322 3.49"/>
        <path fill="#4273FF" d="M295.796 150.33l-.349 7.514h-47.78zM234.945 96.796l-1.804.146-.98-12.197 1.803-.145a6.11 6.11 0 0 1 6.577 5.607c.271 3.368-2.234 6.318-5.596 6.59M221.044 109.514l-4.509.364a4.526 4.526 0 0 1-4.872-4.153l-.397-4.948 9.017-.728.761 9.465z"/>
        <path fill="#4273FF" d="M233.7 96.58l-4.895.395-1.262-15.695 4.377-.353a5.432 5.432 0 0 1 5.847 4.984l.432 5.373a4.913 4.913 0 0 1-4.498 5.296"/>
        <path fill="#F2B3D2" d="M233.364 113.141l-16.009 1.291-1.452-18.06c-.441-5.493 3.646-10.305 9.13-10.748 5.296-.427 9.996 3.387 10.678 8.667l1.776 13.751a4.53 4.53 0 0 1-4.123 5.099"/>
        <path fill="#4273FF" d="M219.025 84.4l1.352-.11 1.367 17.005-10.37.837-.64-7.971c-.401-4.99 3.311-9.36 8.291-9.762"/>
        <path fill="#F2B3D2" d="M216.47 103.426l2.705-.218-.218-2.71a2.716 2.716 0 0 0-2.923-2.493 2.718 2.718 0 0 0-2.488 2.929 2.716 2.716 0 0 0 2.923 2.492"/>
        <path fill="#4273FF" d="M236.906 91.437l-10.27.829c-4.187.337-7.866-2.8-8.204-6.993a3.623 3.623 0 0 1 3.317-3.905 3.62 3.62 0 0 1 3.897 3.323.38.38 0 0 0 .408.347l10.271-.829.581 7.228z"/>
        <path fill="#4273FF" d="M232.783 88.132l-5.11.413a3.62 3.62 0 0 1-3.897-3.323 3.624 3.624 0 0 1 3.316-3.905l5.11-.413a3.621 3.621 0 0 1 3.898 3.323 3.624 3.624 0 0 1-3.317 3.905M237.96 111.683a3.628 3.628 0 0 1-3.301 4.083l-7.17.579c-3.983.32-7.473-2.654-7.793-6.646l-.68-8.459 2.703-.218a3.018 3.018 0 0 0 3.249 2.77l11.847-.956 1.145 8.847z"/>
        <path fill="#F2B3D2" d="M232.046 152.724a3.981 3.981 0 1 0-7.643 2.239 3.98 3.98 0 0 0 4.94 2.71 3.99 3.99 0 0 0 2.703-4.95"/>
        <path fill="#F2B3D2" d="M224.129 154.005a2.992 2.992 0 0 1-2.029 3.71 2.985 2.985 0 0 1-3.704-2.03 2.986 2.986 0 1 1 5.733-1.68"/>
        <path fill="#F2B3D2" d="M228.225 157.834l-6.963.003-.838-5.864 6.683-1.958z"/>
        <path fill="#4A2ACD" d="M183.388 144.363l38.445 7.548-.572 5.928h-5l-34.17.003z"/>
        <path fill="#F2B3D2" d="M221.263 157.837l.572-5.93-2.589-.507-.001 6.437z"/>
        <path fill="#4A2ACD" d="M197.612 150.512h5.64v-5.651h-5.64z"/>
        <path fill="#FFF" d="M219.15 151.89l-25.31-4.967.19-.98 25.312 4.968z"/>
        <path fill="#DDE8FB" d="M226.504 188.445l-17.502-5.29.288-.954 17.502 5.289z"/>
        <path fill="#A9C4FF" d="M55.296 90.097c-1.463 6.795-3.916 13.338-5.875 20.006-2.015 6.864-4.049 13.847-4.024 21.002.032 9.306 3.719 18.551 10.096 25.318 2.499 2.652 5.417 4.97 7.341 8.064 1.925 3.096 2.635 7.346.485 10.29-3.101 4.245-9.735 3.325-14.27 5.977-5.71 3.339-6.504 11.85-3.249 17.616 3.256 5.765 18.081 22.26 39.234 18.175 9.467-1.828 22.3-10.855 21.934-20.507-.38-10.051-9.961-18.192-9.635-28.245.214-6.586 4.634-12.152 8.46-17.512 3.825-5.36 7.39-11.89 5.628-18.24-2.593-9.345-14.607-12.232-20.425-19.985-3.746-4.993-4.571-11.56-4.804-17.803-.233-6.242-.074-12.639-2.152-18.528C79 61.441 61.102 63.145 55.296 90.097"/>
        <path fill="#4273FF" d="M77.03 234.342h.996V126.014h-.995z"/>
        <path fill="#4273FF" d="M78.02 157.316l-.983-.163c1.61-9.8 12.735-15.893 13.208-16.148l.471.878c-.111.06-11.167 6.121-12.696 15.433M77.037 199.975c-1.087-6.618-8.969-10.942-9.048-10.985l.472-.878c.342.184 8.391 4.594 9.559 11.7l-.983.163z"/>
        <path fill="#FFE600" d="M83.044 253.287h-11.2c-6.804 0-12.318-5.524-12.318-12.34v-10.345h35.836v10.346c0 6.815-5.515 12.34-12.318 12.34"/>
        <path fill="#4273FF" d="M65.888 252.319a12.82 12.82 0 0 1-6.86-11.372v-3.804h.995v3.804c0 4.414 2.425 8.433 6.328 10.489l-.463.883z"/>
        <path fill="#FFF" d="M59.526 234.84h35.836v-.996H59.526z"/>
        <path fill="#739EFF" d="M.606 254.285h454.116v-.998H.606z"/>
        <path fill="#4273FF" d="M224.75 261.268h106.086H224.75z"/>
        <path fill="#739EFF" d="M224.75 261.767h106.085v-.997H224.75z"/>
        <path fill="#4273FF" d="M304.726 268.867h66.515-66.515z"/>
        <path fill="#739EFF" d="M304.726 269.366h66.515v-.998h-66.515z"/>
        <path fill="#4273FF" d="M189.032 268.867h87.766-87.766z"/>
        <path fill="#739EFF" d="M189.032 269.366h87.766v-.998h-87.766z"/>
        <path fill="#4273FF" d="M360.734 261.385h31.773-31.773z"/>
        <path fill="#739EFF" d="M360.734 261.883h31.773v-.997h-31.773z"/>
        <path fill="#4273FF" d="M143.73 261.268h64.33-64.33z"/>
        <path fill="#739EFF" d="M143.73 261.767h64.33v-.997h-64.33z"/>
        <path fill="#4273FF" d="M72.534 231.101h22.828v-.997H72.534z"/>
        <path fill="#FFE600" d="M306.885 21.738c.347-3.14 1.261-5.278 3.431-6.457 6.434-3.495 22.578 2.175 29.291 10.924 9.361 12.201.823 30.963-8.27 32.16-10.581 1.395-26.241-20.42-24.452-36.627"/>
        <path fill="#FFF" d="M235.606 105.399a2.741 2.741 0 0 1-2.486 2.973 2.74 2.74 0 0 1-2.968-2.49l5.454-.483zM353.473 209.208c0 5.313-4.3 9.62-9.602 9.62-5.303 0-9.602-4.307-9.602-9.62 0-5.312 4.3-9.62 9.602-9.62 5.303 0 9.602 4.308 9.602 9.62"/>
        <path fill="#4273FF" d="M343.87 200.087c-5.02 0-9.103 4.092-9.103 9.121 0 5.03 4.084 9.121 9.104 9.121s9.104-4.091 9.104-9.12c0-5.03-4.084-9.122-9.104-9.122m0 19.24c-5.57 0-10.1-4.54-10.1-10.119s4.53-10.118 10.1-10.118c5.569 0 10.1 4.54 10.1 10.118 0 5.58-4.531 10.119-10.1 10.119"/>
        <path fill="#FFF" d="M338.51 212.507c0 3.823-3.095 6.923-6.912 6.923-3.816 0-6.91-3.1-6.91-6.923 0-3.824 3.094-6.924 6.91-6.924 3.817 0 6.911 3.1 6.911 6.924"/>
        <path fill="#4273FF" d="M331.598 206.083c-3.535 0-6.413 2.881-6.413 6.424 0 3.542 2.878 6.425 6.413 6.425 3.536 0 6.414-2.883 6.414-6.425 0-3.543-2.878-6.424-6.414-6.424m0 13.846c-4.084 0-7.408-3.33-7.408-7.422s3.324-7.422 7.408-7.422c4.085 0 7.409 3.33 7.409 7.422s-3.324 7.422-7.409 7.422"/>
        <path fill="#4273FF" d="M356.54 210.206l-.651 5.021-.125.998-1.771 13.702-2.16 16.67-.215 1.665-.652 5.026H322.96l-.652-5.026-.13-.998-1.567-12.126-2.449-18.913-.124-.998-.653-5.02z"/>
        <path fill="#FF62DF" d="M339.143 157.844h10.452v-34.156h-10.452z"/>
        <path fill="#FFF" d="M342.627 141.015h3.484v-13.837h-3.484z"/>
        <path fill="#4A2ACD" d="M346.36 149.43c0 1.101-.891 1.994-1.99 1.994-1.1 0-1.992-.893-1.992-1.995 0-1.101.892-1.994 1.991-1.994 1.1 0 1.99.893 1.99 1.994"/>
        <path fill="#4273FF" d="M328.692 157.844h10.451v-34.156h-10.451z"/>
        <path fill="#FFF" d="M332.176 141.015h3.483v-13.837h-3.483z"/>
        <path fill="#DDE8FB" d="M335.908 149.43c0 1.101-.891 1.994-1.991 1.994s-1.99-.893-1.99-1.995c0-1.101.89-1.994 1.99-1.994s1.99.893 1.99 1.994"/>
        <path fill="#4A2ACD" d="M318.24 157.844h10.452v-34.156h-10.453z"/>
        <path fill="#FFF" d="M321.723 141.015h3.484v-13.837h-3.484z"/>
        <path fill="#4273FF" d="M325.456 149.43a1.992 1.992 0 0 1-1.99 1.994c-1.1 0-1.992-.893-1.992-1.995 0-1.101.891-1.994 1.991-1.994s1.991.893 1.991 1.994"/>
        <path fill="#FF62DF" d="M154.53 47.746c-12.568 0-22.793 10.243-22.793 22.834 0 12.59 10.225 22.834 22.792 22.834 12.568 0 22.792-10.244 22.792-22.834 0-12.591-10.224-22.834-22.792-22.834m0 46.665c-13.117 0-23.787-10.69-23.787-23.831 0-13.14 10.67-23.831 23.787-23.831 13.117 0 23.788 10.69 23.788 23.831 0 13.14-10.671 23.831-23.788 23.831"/>
        <path fill="#A9C4FF" d="M174.438 70.58c0 11.015-8.913 19.945-19.91 19.945-10.994 0-19.908-8.93-19.908-19.945s8.914-19.945 19.909-19.945c10.996 0 19.909 8.93 19.909 19.945"/>
        <path fill="#8CA9FF" d="M154.53 51.133c-10.704 0-19.412 8.724-19.412 19.447 0 10.723 8.708 19.447 19.411 19.447 10.704 0 19.411-8.724 19.411-19.447 0-10.723-8.707-19.447-19.41-19.447m0 39.89c-11.253 0-20.407-9.17-20.407-20.443 0-11.273 9.154-20.444 20.406-20.444 11.252 0 20.407 9.171 20.407 20.444s-9.155 20.444-20.407 20.444"/>
        <path fill="#333854" d="M154.529 50.635v4.195-4.195z"/>
        <path fill="#8CA9FF" d="M154.032 54.83h.995v-4.195h-.995z"/>
        <path fill="#333854" d="M154.529 86.33v4.195-4.195z"/>
        <path fill="#8CA9FF" d="M154.032 90.525h.995V86.33h-.995z"/>
        <path fill="#333854" d="M144.574 53.307l2.094 3.633-2.094-3.633z"/>
        <path fill="#8CA9FF" d="M146.237 57.19l-2.094-3.634.863-.498 2.093 3.633z"/>
        <path fill="#333854" d="M162.39 84.22l2.094 3.633-2.094-3.633z"/>
        <path fill="#8CA9FF" d="M164.052 88.102l-2.094-3.633.863-.498 2.093 3.633z"/>
        <path fill="#333854" d="M137.288 60.607l3.626 2.098-3.626-2.098z"/>
        <path fill="#8CA9FF" d="M140.665 63.137l-3.626-2.098.497-.864 3.627 2.098z"/>
        <path fill="#333854" d="M168.144 78.455l3.626 2.098-3.626-2.098z"/>
        <path fill="#8CA9FF" d="M171.522 80.985l-3.627-2.098.498-.864 3.627 2.098z"/>
        <path fill="#333854" d="M134.62 70.58h4.188-4.188z"/>
        <path fill="#8CA9FF" d="M134.62 71.079h4.188v-.998h-4.188z"/>
        <path fill="#333854" d="M170.25 70.58h4.188-4.188z"/>
        <path fill="#8CA9FF" d="M170.25 71.079h4.188v-.998h-4.188z"/>
        <path fill="#333854" d="M137.288 80.553l3.626-2.098-3.626 2.098z"/>
        <path fill="#8CA9FF" d="M137.536 80.985l-.497-.864 3.626-2.098.498.864z"/>
        <path fill="#333854" d="M168.144 62.705l3.626-2.098-3.626 2.098z"/>
        <path fill="#8CA9FF" d="M168.393 63.137l-.498-.864 3.627-2.098.498.864z"/>
        <path fill="#333854" d="M144.574 87.853l2.094-3.633-2.094 3.633z"/>
        <path fill="#8CA9FF" d="M145.006 88.102l-.862-.498 2.093-3.633.863.498z"/>
        <path fill="#333854" d="M162.39 56.94l2.094-3.633-2.094 3.633z"/>
        <path fill="#8CA9FF" d="M162.821 57.19l-.862-.5 2.093-3.632.863.498z"/>
        <path fill="#36F" d="M163.988 71.079h-9.957v-12.65h.996v11.652h8.96z"/>
        <path fill="#FFE600" d="M162.742 157.938h-7.217l-.996-15.356h9.208z"/>
        <path fill="#FFF" d="M163.222 132.618a4.56 4.56 0 0 1-4.554 4.562v-3.767a5.923 5.923 0 0 1-5.918-5.929 5.922 5.922 0 0 1 5.918-5.924v6.49a4.562 4.562 0 0 1 4.554 4.568"/>
        <path fill="#4273FF" d="M158.17 122.081a5.431 5.431 0 0 0-4.922 5.403c0 2.994 2.432 5.43 5.42 5.43h.498v3.737a4.068 4.068 0 0 0-.498-8.102h-.498v-6.468zm.498 15.598h-.498v-3.787a6.43 6.43 0 0 1-5.917-6.408c0-3.542 2.878-6.423 6.415-6.423h.498v6.515a5.068 5.068 0 0 1 4.554 5.041c0 2.792-2.266 5.062-5.052 5.062z"/>
        <path fill="#739EFF" d="M353.992 229.927l-2.16 16.67-.214 1.665-.652 5.026H322.96l-.652-5.026-.13-.997-1.567-12.127z"/>
        <path fill="#FFF" d="M326.59 247.718l-.99.09-.05-.543-2.857-31.04-.04-.454.996-.09.05.544 2.852 31.04zM329.946 247.792l-1.761-32.038.993-.054 1.761 32.037zM334.294 247.774l-.58-32.038.995-.018.58 32.037zM339.637 247.774l-.995-.019.602-32.037.995.018zM343.985 247.792l-.994-.055 1.784-32.037.993.055zM351.297 215.77l-.04.455-2.876 31.04-.05.543-.99-.09.04-.453 2.876-31.04.05-.544z"/>
        <path fill="#FFF" d="M351.745 247.265h-29.564l.13.997h29.31l.214-1.666v-.024l-.09.693zm-33.705-32.037l.124.997h37.603l.124-.997H318.04zM248.163 157.867l-.994-.046 1.588-34.156.994.045z"/>
        <path fill="#DDE8FB" d="M125.136 162.83H191.8h-66.664z"/>
        <path fill="#4273FF" d="M125.136 163.329h66.665v-.997h-66.665z"/>
        <path fill="#DDE8FB" d="M224.08 162.83H334.5 224.08z"/>
        <path fill="#4273FF" d="M224.08 163.329H334.5v-.997H224.08z"/>
        <path fill="#DDE8FB" d="M349.595 162.83h28.627-28.627z"/>
        <path fill="#4273FF" d="M349.595 163.329h28.626v-.997h-28.626z"/>
        <path fill="#DDE8FB" d="M339.965 162.83h4.594-4.594z"/>
        <path fill="#4273FF" d="M339.966 163.329h4.593v-.997h-4.593z"/>
        <path fill="#DDE8FB" d="M317.385 210.206h14.542-14.542z"/>
        <path fill="#4273FF" d="M317.385 210.705h14.542v-.998h-14.542z"/>
        <path fill="#DDE8FB" d="M334.269 253.787h28.126-28.126z"/>
        <path fill="#4273FF" d="M334.269 254.286h28.126v-.998h-28.126z"/>
        <path fill="#DDE8FB" d="M135.567 253.787h61.322-61.322z"/>
        <path fill="#4273FF" d="M135.567 254.286h61.322v-.998h-61.322z"/>
        <path fill="#DDE8FB" d="M77.887 253.787h22.955-22.955z"/>
        <path fill="#4273FF" d="M77.887 254.286h22.956v-.998H77.887z"/>
        <path fill="#DDE8FB" d="M319.626 253.787h7.928-7.928z"/>
        <path fill="#4273FF" d="M319.626 254.286h7.928v-.998h-7.928z"/>
        <path fill="#739EFF" d="M249.596 57.112c-.653 0-1.304-.06-1.951-.18a4.14 4.14 0 0 1-3.382-4.072v-.692h.996v.692a3.143 3.143 0 0 0 2.566 3.091 9.671 9.671 0 0 0 3.541 0 3.143 3.143 0 0 0 2.566-3.091c0-1.376-.88-2.58-2.188-2.997l-4.598-1.463a4.126 4.126 0 0 1-2.883-3.948 4.141 4.141 0 0 1 3.381-4.072c1.295-.24 2.607-.24 3.903 0a4.14 4.14 0 0 1 3.38 4.072v.693h-.995v-.693a3.143 3.143 0 0 0-2.566-3.091 9.668 9.668 0 0 0-3.54 0 3.143 3.143 0 0 0-2.567 3.091c0 1.377.88 2.581 2.188 2.998l4.598 1.462a4.127 4.127 0 0 1 2.883 3.948 4.14 4.14 0 0 1-3.381 4.072c-.648.12-1.3.18-1.951.18"/>
        <path fill="#739EFF" d="M249.098 40.7h.996v-3.031h-.996zM249.098 59.613h.996v-3.03h-.996z"/>
        <path fill="#739EFF" d="M249.596 33.004c-8.607 0-15.609 7.015-15.609 15.637 0 8.623 7.002 15.638 15.609 15.638 8.606 0 15.608-7.015 15.608-15.638 0-8.622-7.002-15.637-15.608-15.637m0 32.272c-9.156 0-16.604-7.462-16.604-16.635 0-9.172 7.448-16.634 16.604-16.634 9.155 0 16.604 7.462 16.604 16.634 0 9.173-7.449 16.635-16.604 16.635"/>
        <path fill="#FFF" d="M440.526 75.423l-11.534 24.042-8.093-6.307 19.214-17.515c.018-.018-.003-.049-.026-.037L414.466 88.14l-6.318-4.923 32.28-7.919c.07-.019.131.057.098.124"/>
        <path fill="#36F" d="M409.266 83.458l5.26 4.099 22.097-10.81-27.357 6.71zm12.406 9.67l7.139 5.564 10.294-21.456-17.433 15.892zm7.501 7.11l-9.046-7.05 17.194-15.674-22.916 11.212-7.374-5.746 33.279-8.165a.58.58 0 0 1 .588.194.591.591 0 0 1 .077.63l-11.802 24.6z"/>
        <path fill="#FFF" d="M440.113 75.644l-19.214 17.514-5.307 4.836a.66.66 0 0 1-1.104-.488l-.022-9.362v-.003l25.62-12.535c.024-.012.045.019.027.038"/>
        <path fill="#36F" d="M414.964 88.453l.022 9.051c0 .093.06.133.097.15a.157.157 0 0 0 .175-.03l22.063-20.11-22.357 10.939zm.189 10.214c-.158 0-.319-.034-.472-.101a1.147 1.147 0 0 1-.69-1.06l-.024-9.673.28-.14 26-12.72.52.696-.32.343-24.52 22.35c-.22.2-.494.305-.774.305z"/>
        <path fill="#4273FF" d="M408.945 102.146l-.53-.843a51.437 51.437 0 0 0 2.054-1.354l.575.814c-.03.021-.757.535-2.1 1.383M295.515 103.012l-.096-.992a65.477 65.477 0 0 1 4.961-.291l.02.997c-1.64.034-3.283.13-4.885.286zm14.663.201a73.13 73.13 0 0 0-4.881-.413l.05-.996c1.63.082 3.295.223 4.948.419l-.117.99zm-24.273 1.552l-.266-.962a54.951 54.951 0 0 1 4.855-1.102l.177.981c-1.632.295-3.235.66-4.766 1.083zm33.913.207a82.376 82.376 0 0 0-4.793-1.028l.179-.981c1.6.293 3.233.643 4.852 1.04l-.238.969zm80.488 2.043l-.448-.89c1.468-.741 2.926-1.519 4.337-2.313l.488.87a110.79 110.79 0 0 1-4.377 2.333zm-71.106.817a94.504 94.504 0 0 0-4.653-1.557l.29-.954a95.069 95.069 0 0 1 4.702 1.573l-.339.938zm62.063 3.248l-.366-.928c1.5-.592 3.023-1.236 4.526-1.911l.407.91a106.935 106.935 0 0 1-4.567 1.93zm-53.01.55a107.706 107.706 0 0 0-4.482-2.007l.385-.92c1.5.631 3.023 1.312 4.524 2.025l-.427.901zm43.615 2.63l-.269-.961a91.762 91.762 0 0 0 4.688-1.454l.32.945a93.246 93.246 0 0 1-4.74 1.47zm-34.353.97a49.472 49.472 0 0 1-4.726-1.575l.362-.93a48.404 48.404 0 0 0 4.63 1.544l-.266.96zm24.656 1.14l-.15-.986a77.001 77.001 0 0 0 4.82-.895l.211.974a77.817 77.817 0 0 1-4.88.906zm-14.865.59a54.4 54.4 0 0 1-4.936-.633l.172-.982c1.58.277 3.21.486 4.846.622l-.082.993zm4.969.195l-.003-.997a63.336 63.336 0 0 0 4.889-.206l.08.993c-1.672.135-3.342.206-4.966.21zM279.058 107.327l-.483-.872c.032-.018.819-.453 2.317-1.059l.373.925c-1.435.58-2.2 1.001-2.207 1.006"/>
        <path fill="#36F" d="M287.521 88.44h24.798V71.799h-24.798v16.643zm-.995.998h26.788V70.801h-26.788v18.637z"/>
        <path fill="#36F" d="M300.25 82.995l-13.545-11.313.637-.765 12.892 10.766 12.255-10.759.656.75z"/>
        <path fill="#FFF" d="M316.14 71.3a3.326 3.326 0 0 1-3.323 3.328 3.326 3.326 0 0 1-3.323-3.329 3.326 3.326 0 0 1 3.323-3.328 3.326 3.326 0 0 1 3.323 3.328"/>
        <path fill="#36F" d="M312.817 68.47a2.83 2.83 0 0 0 0 5.66 2.831 2.831 0 0 0 0-5.66m0 6.657a3.829 3.829 0 0 1 0-7.655 3.828 3.828 0 0 1 0 7.655"/>
        <path fill="#FF62DF" d="M400.487 132.756h.995v-2.797h-.995zM400.487 149.539h.995v-2.797h-.995zM397.063 133.942l-1.396-2.422.863-.499 1.395 2.422zM405.44 148.477l-1.397-2.422.863-.499 1.395 2.422zM394.69 136.685l-2.417-1.4.498-.863 2.418 1.399zM409.199 145.076l-2.418-1.399.497-.864 2.418 1.4zM391.212 140.247h2.792v-.997h-2.792zM407.965 140.247h2.792v-.997h-2.792zM392.77 145.076l-.497-.863 2.418-1.4.497.864zM407.278 136.685l-.497-.864 2.417-1.4.498.864zM396.53 148.477l-.862-.499 1.395-2.422.863.499zM404.906 133.942l-.862-.499 1.395-2.422.863.499zM197.928 9.236h.995V6.438h-.995zM197.928 26.019h.995v-2.797h-.995zM194.504 10.422L193.108 8l.863-.499 1.395 2.422zM202.88 24.957l-1.396-2.423.863-.498 1.395 2.422zM192.132 13.164l-2.418-1.398.498-.864 2.418 1.399zM206.64 21.556l-2.418-1.399.498-.864 2.417 1.4zM188.653 16.728h2.793v-.998h-2.793zM205.406 16.728h2.792v-.998h-2.792zM190.211 21.556l-.497-.864 2.418-1.399.497.864zM204.72 13.164l-.498-.863 2.417-1.4.498.865zM193.97 24.957l-.861-.5 1.395-2.421.863.498zM202.347 10.422l-.862-.499 1.395-2.422.863.499z"/>
    </g>
</svg>
