<svg width="12" height="12" viewBox="0 0 12 12" fill="none" xmlns="http://www.w3.org/2000/svg">
<path d="M5.09091 0C4.49091 0 4 0.490909 4 1.09091L4 3.66968H5.09091V1.63636H10.5455V10.3636H5.09091V8.15607H4L4 10.9091C4 11.5091 4.49091 12 5.09091 12H10.5455C11.1455 12 11.6364 11.5091 11.6364 10.9091V1.09091C11.6364 0.490909 11.1455 0 10.5455 0H5.09091Z" fill="black"/>
<path fill-rule="evenodd" clip-rule="evenodd" d="M4.4 3C2.4 3 0.692 4.244 0 6C0.692 7.756 2.4 9 4.4 9C6.4 9 8.108 7.756 8.8 6C8.108 4.244 6.4 3 4.4 3ZM4.4 8C3.296 8 2.4 7.104 2.4 6C2.4 4.896 3.296 4 4.4 4C5.504 4 6.4 4.896 6.4 6C6.4 7.104 5.504 8 4.4 8ZM3.2 6C3.2 5.336 3.736 4.8 4.4 4.8C5.064 4.8 5.6 5.336 5.6 6C5.6 6.664 5.064 7.2 4.4 7.2C3.736 7.2 3.2 6.664 3.2 6Z" fill="black"/>
<mask id="mask0_1017_3297" style="mask-type:alpha" maskUnits="userSpaceOnUse" x="0" y="3" width="9" height="6">
<path fill-rule="evenodd" clip-rule="evenodd" d="M4.4 3C2.4 3 0.692 4.244 0 6C0.692 7.756 2.4 9 4.4 9C6.4 9 8.108 7.756 8.8 6C8.108 4.244 6.4 3 4.4 3ZM4.4 8C3.296 8 2.4 7.104 2.4 6C2.4 4.896 3.296 4 4.4 4C5.504 4 6.4 4.896 6.4 6C6.4 7.104 5.504 8 4.4 8ZM3.2 6C3.2 5.336 3.736 4.8 4.4 4.8C5.064 4.8 5.6 5.336 5.6 6C5.6 6.664 5.064 7.2 4.4 7.2C3.736 7.2 3.2 6.664 3.2 6Z" fill="white"/>
</mask>
<g mask="url(#mask0_1017_3297)">
</g>
</svg>
